<?xml version="1.0" standalone="no"?>
<!DOCTYPE svg PUBLIC "-//W3C//DTD SVG 20010904//EN"
 "http://www.w3.org/TR/2001/REC-SVG-20010904/DTD/svg10.dtd">
<svg version="1.0" xmlns="http://www.w3.org/2000/svg"
 width="270.000000pt" height="270.000000pt" viewBox="0 0 270.000000 270.000000"
 preserveAspectRatio="xMidYMid meet">
<metadata>
Created by potrace 1.11, written by Peter Selinger 2001-2013
</metadata>
<g transform="translate(0.000000,270.000000) scale(0.100000,-0.100000)"
fill="#000000" stroke="none">
<path d="M1176 2609 c-282 -58 -509 -234 -641 -498 -42 -84 -94 -276 -79 -291
7 -7 25 -2 54 13 42 21 45 25 75 118 83 254 263 441 506 526 102 35 100 35
249 39 111 2 148 -1 209 -17 235 -63 413 -205 521 -414 69 -135 84 -198 84
-365 1 -125 -2 -155 -22 -219 -46 -147 -114 -261 -221 -371 -37 -39 -42 -48
-37 -79 3 -20 5 -42 6 -48 0 -25 28 -12 89 44 339 306 393 828 126 1198 -148
204 -341 324 -600 372 -76 14 -233 10 -319 -8z"/>
<path d="M808 1874 c-212 -32 -382 -117 -529 -263 -164 -166 -259 -391 -262
-621 0 -58 3 -123 7 -145 7 -39 24 -110 30 -130 2 -5 7 -23 11 -40 14 -51 90
-189 138 -252 109 -142 262 -254 422 -308 56 -19 55 -19 110 -30 22 -4 49 -10
60 -12 68 -14 179 -14 264 1 105 18 226 57 225 71 0 6 -19 23 -41 39 l-41 28
-53 -15 c-30 -9 -71 -18 -92 -21 -49 -8 -224 -8 -257 -1 -14 3 -37 7 -53 10
-93 17 -243 91 -334 165 -162 131 -271 338 -289 545 -4 39 -6 75 -6 80 0 6 1
28 2 50 9 185 99 383 238 519 114 112 218 170 377 211 76 20 110 23 215 20 78
-2 144 -9 175 -19 67 -21 79 -20 127 10 l42 27 -22 17 c-16 14 -106 42 -172
55 -110 22 -190 24 -292 9z"/>
<path d="M1705 1879 c-112 -15 -137 -21 -197 -40 -144 -47 -257 -117 -364
-223 -131 -132 -226 -307 -250 -462 -6 -40 -5 -43 32 -68 36 -24 40 -25 52 -9
6 9 12 27 12 40 0 13 0 25 0 28 0 18 65 178 91 224 61 109 153 207 259 276
143 93 257 127 433 130 126 2 170 -4 279 -41 59 -19 71 -13 64 35 -3 20 -5 39
-6 43 0 13 -66 36 -143 52 -89 19 -196 25 -262 15z"/>
<path d="M2309 1673 c-4 -72 -1 -81 51 -134 103 -107 176 -239 209 -379 26
-114 23 -315 -8 -410 -44 -140 -105 -243 -204 -344 -75 -76 -133 -116 -240
-166 -109 -50 -205 -71 -330 -70 -164 1 -225 15 -371 87 -189 93 -328 258
-401 477 -32 97 -35 102 -76 123 -63 32 -63 32 -38 -97 32 -161 148 -350 295
-480 94 -83 261 -166 396 -196 113 -26 291 -23 403 5 324 83 570 316 660 628
14 48 28 104 31 123 34 240 -32 488 -182 686 -57 76 -160 174 -181 174 -7 0
-14 -12 -14 -27z"/>
<path d="M1445 1658 c-39 -22 -35 -33 28 -93 84 -80 139 -155 181 -246 62
-135 70 -178 70 -349 0 -148 -1 -159 -31 -246 -44 -128 -104 -223 -200 -321
-46 -46 -83 -86 -83 -88 0 -7 60 -36 80 -40 27 -5 129 100 194 199 76 116 109
202 139 361 18 100 12 275 -14 342 -5 13 -7 23 -4 23 7 0 -41 133 -65 180 -37
73 -97 157 -162 226 -63 67 -89 77 -133 52z"/>
<path d="M505 1608 c-43 -32 -46 -39 -40 -78 23 -141 113 -313 230 -439 182
-197 495 -314 748 -279 95 13 120 18 172 35 63 20 67 23 72 73 5 50 -7 56 -67
35 -134 -48 -353 -56 -480 -17 -193 58 -346 169 -452 325 -66 97 -123 241
-127 318 -1 8 -7 23 -14 33 -12 16 -14 16 -42 -6z"/>
</g>
</svg>
